HIERARCHY
ROOT Hips
{
 OFFSET 0.000000 0.000000 0.000000
 CHANNELS 6 Xposition Yposition Zposition Yrotation Xrotation Zrotation
 JOINT Chest
 {
  OFFSET 0.000000 9.585900 0.002600
  CHANNELS 3 Yrotation Xrotation Zrotation
  JOINT Chest2
  {
   OFFSET 0.000000 9.601200 -0.005300
   CHANNELS 3 Yrotation Xrotation Zrotation
   JOINT Chest3
   {
    OFFSET 0.000000 9.561800 0.000000
    CHANNELS 3 Yrotation Xrotation Zrotation
    JOINT Chest4
    {
     OFFSET 0.000000 9.552100 0.000000
     CHANNELS 3 Yrotation Xrotation Zrotation
     JOINT Neck
     {
      OFFSET 0.000000 14.453000 0.000000
      CHANNELS 3 Yrotation Xrotation Zrotation
      JOINT Head
      {
       OFFSET 0.000000 8.936500 -0.011300
       CHANNELS 3 Yrotation Xrotation Zrotation
       End Site
       {
        OFFSET 0.000000 17.073600 -0.006000
       }
      }
     }
     JOINT RightCollar
     {
      OFFSET -2.921100 9.558500 0.000000
      CHANNELS 3 Yrotation Xrotation Zrotation
      JOINT RightShoulder
      {
       OFFSET -13.519700 0.000000 0.000000
       CHANNELS 3 Yrotation Xrotation Zrotation
       JOINT RightElbow
       {
        OFFSET 0.000000 -29.696600 0.000000
        CHANNELS 3 Yrotation Xrotation Zrotation
        JOINT RightWrist
        {
         OFFSET 0.000000 -24.004700 0.000000
         CHANNELS 3 Yrotation Xrotation Zrotation
         End Site
         {
          OFFSET 0.000000 -17.728500 0.000000
         }
        }
       }
      }
     }
     JOINT LeftCollar
     {
      OFFSET 2.921100 9.558500 0.000000
      CHANNELS 3 Yrotation Xrotation Zrotation
      JOINT LeftShoulder
      {
       OFFSET 13.519700 0.000000 0.000000
       CHANNELS 3 Yrotation Xrotation Zrotation
       JOINT LeftElbow
       {
        OFFSET 0.000000 -29.696600 0.000000
        CHANNELS 3 Yrotation Xrotation Zrotation
        JOINT LeftWrist
        {
         OFFSET 0.000000 -24.004700 0.000000
         CHANNELS 3 Yrotation Xrotation Zrotation
         End Site
         {
          OFFSET 0.000000 -17.728500 0.000000
         }
        }
       }
      }
     }
    }
   }
  }
 }
 JOINT RightHip
 {
  OFFSET -7.771700 -0.012900 -0.001300
  CHANNELS 3 Yrotation Xrotation Zrotation
  JOINT RightKnee
  {
   OFFSET 0.000000 -40.869800 0.001200
   CHANNELS 3 Yrotation Xrotation Zrotation
   JOINT RightAnkle
   {
    OFFSET 0.000000 -39.717900 0.002100
    CHANNELS 3 Yrotation Xrotation Zrotation
    JOINT RightToe
    {
     OFFSET 0.000000 -4.965400 11.033500
     CHANNELS 3 Yrotation Xrotation Zrotation
     End Site
     {
      OFFSET 0.000000 -1.423100 5.872300
     }
    }
   }
  }
 }
 JOINT LeftHip
 {
  OFFSET 7.771700 -0.012900 -0.001300
  CHANNELS 3 Yrotation Xrotation Zrotation
  JOINT LeftKnee
  {
   OFFSET 0.000000 -40.869800 0.001200
   CHANNELS 3 Yrotation Xrotation Zrotation
   JOINT LeftAnkle
   {
    OFFSET 0.000000 -39.717900 0.002100
    CHANNELS 3 Yrotation Xrotation Zrotation
    JOINT LeftToe
    {
     OFFSET 0.000000 -4.965400 11.033500
     CHANNELS 3 Yrotation Xrotation Zrotation
     End Site
     {
      OFFSET 0.000000 -1.423100 5.872300
     }
    }
   }
  }
 }
}
MOTION
Frames: 9
Frame Time: 0.008333
-64.174409 57.778314 11.672031 178.310899 -50.146862 -3.476187 3.410681 22.130433 2.944982 1.768001 12.667639 1.516414 2.278163 15.826374 1.970912 1.768029 12.667746 1.516447 0.828948 17.287828 7.161803 -0.869103 -3.484854 12.920787 2.415856 4.118753 0.677869 -2.064454 -16.481901 -9.671022 -33.362692 -38.641241 89.797419 1.978163 8.952818 -33.582098 -9.429507 -0.290154 -0.721139 0.482151 -14.797115 11.991656 25.935410 -30.686907 -79.162021 10.005843 3.767504 14.717247 6.756251 -21.083705 -1.842495 -34.192894 74.179053 -38.742266 7.033232 -15.676317 13.498097 -0.013184 -0.008946 -0.005239 -7.988326 -18.920603 5.320704 88.043481 80.571675 87.552110 0.941808 -21.549740 -19.154129 0.037415 0.013499 0.008448
-64.174786 57.777550 11.671747 178.309228 -50.144526 -3.475991 3.406448 22.140252 2.951049 1.768202 12.663002 1.513213 2.273315 15.829244 1.975357 1.768478 12.665603 1.512276 0.828961 17.275127 7.146642 -0.864718 -3.504190 12.895158 2.428552 4.103201 0.665126 -2.059356 -16.480354 -9.669961 -33.357232 -38.626794 89.777381 1.984320 8.958487 -33.577869 -9.425436 -0.301074 -0.725179 0.489174 -14.785827 11.969471 25.916412 -30.697399 -79.133128 10.070865 3.767696 14.723966 6.757530 -21.086921 -1.843779 -34.188366 74.186031 -38.736623 7.040976 -15.690029 13.493538 -0.025948 -0.009710 -0.005591 -7.987356 -18.922337 5.323598 88.050961 80.572134 87.556404 0.944527 -21.552061 -19.149550 0.030730 0.017740 0.007409
-64.175396 57.776217 11.671932 178.309032 -50.136650 -3.478425 3.405827 22.136555 2.957895 1.763622 12.664217 1.512500 2.273368 15.826833 1.973215 1.758364 12.672881 1.531564 0.832147 17.264043 7.116848 -0.861976 -3.536670 12.854536 2.447006 4.088056 0.634928 -2.052577 -16.487599 -9.662030 -33.279512 -38.585083 89.698720 2.013083 8.920066 -33.573660 -9.414501 -0.326998 -0.733060 0.498717 -14.766383 11.934399 25.903829 -30.709687 -79.113935 10.106433 3.765419 14.732018 6.757226 -21.095474 -1.842646 -34.203381 74.186650 -38.749609 7.033589 -15.709563 13.495508 -0.021091 0.003248 -0.006472 -7.985533 -18.934049 5.331242 88.085728 80.575477 87.591394 0.942539 -21.551612 -19.145008 0.033623 0.016460 0.008222
-64.177560 57.775209 11.671632 178.321615 -50.130287 -3.483767 3.395510 22.134009 2.958381 1.757261 12.669058 1.521010 2.268828 15.825447 1.967324 1.755642 12.671315 1.531253 0.831121 17.253209 7.097900 -0.860236 -3.563859 12.816027 2.458700 4.077769 0.619102 -2.057723 -16.483773 -9.657430 -33.219384 -38.559839 89.647399 2.028476 8.898607 -33.572544 -9.412985 -0.342895 -0.731967 0.507732 -14.752852 11.911671 25.894550 -30.705306 -79.082979 10.138053 3.764117 14.723319 6.750494 -21.099306 -1.851174 -34.218331 74.186834 -38.763947 7.039385 -15.730540 13.496778 -0.024060 0.017339 -0.007513 -7.993586 -18.944251 5.327983 88.114130 80.574889 87.618474 0.940448 -21.550510 -19.143367 0.037391 0.015361 0.009856
-64.179740 57.774513 11.670955 178.326865 -50.125961 -3.485148 3.390463 22.131834 2.959366 1.755511 12.668815 1.520034 2.265501 15.826714 1.972296 1.748795 12.672819 1.533047 0.831166 17.238946 7.075572 -0.859002 -3.561465 12.811886 2.473298 4.064720 0.602466 -2.065960 -16.478546 -9.651736 -33.166779 -38.535752 89.603204 2.045115 8.872966 -33.569629 -9.408069 -0.359053 -0.729819 0.516609 -14.739062 11.886943 25.874037 -30.693825 -79.015072 10.142819 3.758938 14.675157 6.750748 -21.102751 -1.861558 -34.216457 74.190562 -38.758515 7.044021 -15.747144 13.497489 -0.023421 0.020343 -0.008709 -7.997650 -18.952131 5.326764 88.139872 80.573041 87.641780 0.939739 -21.547366 -19.143601 0.030962 0.015217 0.012657
-64.182668 57.774656 11.669362 178.334687 -50.127697 -3.484849 3.382770 22.134795 2.954061 1.753819 12.669786 1.522002 2.251083 15.831976 1.983388 1.747123 12.672984 1.525948 0.823307 17.217930 7.044752 -0.848105 -3.578720 12.777061 2.490281 4.050873 0.584866 -2.069668 -16.478295 -9.641507 -33.115498 -38.504429 89.547242 2.067940 8.850580 -33.562125 -9.399284 -0.378318 -0.728296 0.529780 -14.724285 11.853418 25.855808 -30.697625 -78.971118 10.202879 3.774893 14.678379 6.758766 -21.098961 -1.880683 -34.209017 74.204141 -38.740290 7.043836 -15.764430 13.498000 -0.019406 0.002705 -0.010398 -8.000415 -18.952376 5.320891 88.151793 80.571025 87.650320 0.939549 -21.545713 -19.143153 0.027613 0.014620 0.014475
-64.185868 57.774934 11.667490 178.341375 -50.130218 -3.482244 3.370353 22.140538 2.948843 1.748831 12.670835 1.522290 2.254467 15.830381 1.977678 1.742916 12.675677 1.529706 0.816246 17.211330 7.028928 -0.852306 -3.632162 12.687549 2.498406 4.044573 0.576081 -2.073093 -16.483036 -9.630805 -33.082501 -38.487221 89.510671 2.028240 8.895002 -33.581281 -9.402028 -0.416101 -0.708449 0.550620 -14.688890 11.809810 25.839833 -30.703512 -78.925083 10.269891 3.797540 14.687980 6.762357 -21.094460 -1.893837 -34.204125 74.223141 -38.736876 7.041527 -15.799560 13.501124 -0.035371 0.006661 -0.011380 -8.000641 -18.951387 5.313871 88.172182 80.567203 87.666821 0.935570 -21.548583 -19.139848 0.033208 0.015965 0.015289
-64.189391 57.775273 11.665427 178.344777 -50.133185 -3.474941 3.355966 22.149455 2.947952 1.740865 12.675289 1.521968 2.252146 15.830700 1.971113 1.744615 12.673038 1.523269 0.808646 17.206436 7.011261 -0.855120 -3.652413 12.643269 2.515441 4.029039 0.566137 -2.105921 -16.491461 -9.598845 -33.018132 -38.469827 89.450114 2.011719 8.909043 -33.587733 -9.402843 -0.437956 -0.702847 0.566047 -14.671919 11.782316 25.819338 -30.709264 -78.878289 10.330150 3.815925 14.691896 6.769373 -21.090729 -1.908115 -34.212811 74.232599 -38.741917 7.020506 -15.817153 13.507035 -0.021669 0.007114 -0.011188 -7.993535 -18.947441 5.304829 88.146427 80.570409 87.640958 0.931954 -21.551248 -19.135602 0.031134 0.019347 0.016356
-64.190954 57.775847 11.663310 178.339083 -50.137856 -3.472153 3.358711 22.154762 2.953477 1.740003 12.675562 1.519547 2.240890 15.845973 1.989059 1.738507 12.668216 1.511257 0.811734 17.197211 6.989896 -0.860982 -3.666303 12.607903 2.547665 3.992944 0.549709 -2.139626 -16.473665 -9.581263 -32.940166 -38.436271 89.384101 2.009490 8.892240 -33.595516 -9.393426 -0.458150 -0.710102 0.582395 -14.665610 11.762808 25.792713 -30.712707 -78.832779 10.393480 3.835297 14.698327 6.778225 -21.087239 -1.909981 -34.220166 74.240599 -38.745974 7.020348 -15.841192 13.510800 -0.024960 0.011206 -0.013179 -7.985420 -18.939227 5.308399 88.147034 80.569182 87.642332 0.928122 -21.558979 -19.135005 0.031743 0.021626 0.017042
